# xmcd CD database file
#
# Track frame offsets:
#	150
#	26170
#	31686
#	57282
#	85646
#	119430
#	152099
#	175438
#	200063
#
# Disc length: 3024 seconds
#
# Revision: 0
# Processed by: cddbd v1.5.1PL0 Copyright (c) Steve Scherf et al.
# Submitted via: CDex 1.51
#
DISCID=720bce09
DTITLE=Ray Marchica - In The Ring
DYEAR=2005
DGENRE=Jazz
TTITLE0=Billy's Bounce
TTITLE1="Worm" Drum Solo
TTITLE2=Tequila
TTITLE3=9H5
TTITLE4=Journey's End
TTITLE5=The Joneses
TTITLE6=Minor Mishap
TTITLE7=I Can't Get Startd
TTITLE8=Summertime
EXTD=YEAR: 2005
EXTT0=
EXTT1=
EXTT2=
EXTT3=
EXTT4=
EXTT5=
EXTT6=
EXTT7=
EXTT8=
PLAYORDER=
